<svg xmlns="http://www.w3.org/2000/svg" width="14" height="14" viewBox="0 0 14 14">
    <path fill="#FFF" d="M.825 13.26c-.15-.15-.226-.316-.226-.497s.076-.347.226-.498l4.956-4.956L.87 2.4C.72 2.25.644 2.083.644 1.902s.076-.347.227-.498l.316-.317c.151-.15.317-.226.498-.226s.347.075.498.226l4.91 4.91 4.82-4.82c.15-.15.317-.226.498-.226.18 0 .347.076.498.226l.339.34c.15.15.226.317.226.498 0 .18-.075.347-.226.497l-4.82 4.82 4.933 4.933c.15.15.226.317.226.498 0 .18-.075.347-.226.498l-.317.316c-.15.151-.317.227-.498.227-.18 0-.346-.076-.497-.227L7.116 8.645 2.16 13.6c-.15.15-.316.226-.497.226s-.347-.075-.498-.226l-.34-.34z"/>
</svg>
